<svg xmlns="http://www.w3.org/2000/svg" viewBox="0 0 400 240" font-family="monospace">
  <defs>
    <style>
      .cls-green { fill: #1a4d31; }
    </style>
  </defs>

  <g transform="translate(200, 110)">
    
    <rect class="cls-green" x="-26" y="-76" width="52" width="52" height="11" rx="2"/>
    <rect class="cls-green" x="-26" y="-58" width="52" height="11" rx="2"/>
    
    <path class="cls-green" d="M0,-24 C50,-24 100,-48 100,-48 C100,-48 120,48 50,48 C20,48 10,24 0,24 C-10,24 -20,48 -50,48 C-120,48 -100,-48 -100,-48 C-100,-48 -50,-24 0,-24 Z"/>
    
    <path fill="#fff" d="M-66,-8 A16,16 0 1,1 -34,-8 A16,16 0 1,1 -66,-8"/>
    <path fill="#fff" d="M34,-8 A16,16 0 1,1 66,-8 A16,16 0 1,1 34,-8"/>
    
    <path class="cls-green" transform="translate(-50, -8)" d="M4,-6 L-2,0 L4,6" stroke="#1a4d31" stroke-width="3" fill="none" stroke-linecap="round" stroke-linejoin="round"/>
    <path class="cls-green" transform="translate(50, -8)" d="M-4,-6 L2,0 L-4,6" stroke="#1a4d31" stroke-width="3" fill="none" stroke-linecap="round" stroke-linejoin="round"/>

    <text class="cls-green" x="0" y="85" font-size="38" font-weight="bold" text-anchor="middle" letter-spacing="2">passmask</text>
  </g>
</svg>
